HIERARCHY
ROOT Hips
{
	OFFSET 0.000000 0.000000 0.000000
	CHANNELS 6 Xposition Yposition Zposition Yrotation Xrotation Zrotation
	JOINT Chest
	{
		OFFSET 0.000000 -0.009281 11.569106
		CHANNELS 3 Yrotation Xrotation Zrotation
		JOINT Chest2
		{
			OFFSET -0.000000 0.016865 9.269641
			CHANNELS 3 Yrotation Xrotation Zrotation
			JOINT Chest3
			{
				OFFSET -0.000000 0.000001 8.374491
				CHANNELS 3 Yrotation Xrotation Zrotation
				JOINT Chest4
				{
					OFFSET -0.000000 0.000001 8.374493
					CHANNELS 3 Yrotation Xrotation Zrotation
					JOINT Neck
					{
						OFFSET -0.000000 0.000002 12.152554
						CHANNELS 3 Yrotation Xrotation Zrotation
						JOINT Head
						{
							OFFSET -0.000000 0.040101 7.802319
							CHANNELS 3 Yrotation Xrotation Zrotation
							End Site
							{
								OFFSET -0.000000 0.020947 14.853096
							}
						}
					}
					JOINT RightCollar
					{
						OFFSET 2.894404 0.000001 6.791374
						CHANNELS 3 Yrotation Xrotation Zrotation
						JOINT RightShoulder
						{
							OFFSET 13.574684 0.000001 0.000000
							CHANNELS 3 Yrotation Xrotation Zrotation
							JOINT RightElbow
							{
								OFFSET 23.923903 0.000002 0.000000
								CHANNELS 3 Yrotation Xrotation Zrotation
								JOINT RightWrist
								{
									OFFSET 19.846718 0.012767 0.000000
									CHANNELS 3 Yrotation Xrotation Zrotation
									End Site
									{
										OFFSET 14.973145 0.000001 0.000000
									}
								}
							}
						}
					}
					JOINT LeftCollar
					{
						OFFSET -2.894404 0.000001 6.791374
						CHANNELS 3 Yrotation Xrotation Zrotation
						JOINT LeftShoulder
						{
							OFFSET -13.574684 -0.000001 0.000000
							CHANNELS 3 Yrotation Xrotation Zrotation
							JOINT LeftElbow
							{
								OFFSET -23.923903 -0.000002 0.000000
								CHANNELS 3 Yrotation Xrotation Zrotation
								JOINT LeftWrist
								{
									OFFSET -19.846718 0.012763 0.000000
									CHANNELS 3 Yrotation Xrotation Zrotation
									End Site
									{
										OFFSET -14.973145 -0.000001 0.000000
									}
								}
							}
						}
					}
				}
			}
		}
	}
	JOINT RightHip
	{
		OFFSET 9.469263 0.004643 0.045487
		CHANNELS 3 Yrotation Xrotation Zrotation
		JOINT RightKnee
		{
			OFFSET 0.000000 0.002661 -40.478676
			CHANNELS 3 Yrotation Xrotation Zrotation
			JOINT RightAnkle
			{
				OFFSET 0.000000 0.049106 -35.224068
				CHANNELS 3 Yrotation Xrotation Zrotation
				JOINT RightToe
				{
					OFFSET -0.000001 12.539529 -6.151390
					CHANNELS 3 Yrotation Xrotation Zrotation
					End Site
					{
						OFFSET -0.000001 5.044994 -1.291870
					}
				}
			}
		}
	}
	JOINT LeftHip
	{
		OFFSET -9.469263 0.004641 0.045487
		CHANNELS 3 Yrotation Xrotation Zrotation
		JOINT LeftKnee
		{
			OFFSET 0.000000 0.002661 -40.478676
			CHANNELS 3 Yrotation Xrotation Zrotation
			JOINT LeftAnkle
			{
				OFFSET 0.000000 0.049106 -35.224068
				CHANNELS 3 Yrotation Xrotation Zrotation
				JOINT LeftToe
				{
					OFFSET -0.000001 12.539529 -6.151390
					CHANNELS 3 Yrotation Xrotation Zrotation
					End Site
					{
						OFFSET -0.000001 5.044994 -1.291870
					}
				}
			}
		}
	}
}
MOTION
Frames: 5
Frame Time: 0.016667
18.506193 -0.512206 83.606552 -2.109903 -1.160771 -116.144717 -1.583445 -4.250040 2.677074 -0.741225 -1.913187 1.237049 -0.741225 -1.913188 1.237046 -0.551995 -1.436400 0.925378 1.827418 -12.398348 -4.947395 1.401511 13.121169 -8.663549 9.119101 3.700252 -2.105059 41.786889 -15.207119 -11.208901 -25.239733 -61.796567 85.935794 -41.321828 38.505219 51.235643 -7.769622 5.156135 -6.992953 -40.495853 -8.725824 20.177456 -0.396449 -62.684027 -63.112293 26.816614 7.755450 -71.834206 -3.887278 5.211555 0.826652 0.325691 -21.060405 -6.555955 1.743024 8.870639 -2.556711 -0.169628 0.754130 0.008914 2.215427 -1.583557 12.227523 -0.561494 -6.238541 8.233732 0.163524 1.208611 8.909181 0.184056 -0.493505 -0.054699 
17.945410 -0.600530 83.612404 -2.036239 -1.207720 -116.230900 -1.522886 -4.146296 2.579877 -0.691525 -1.872303 1.197979 -0.691525 -1.872304 1.197981 -0.514929 -1.405592 0.896288 1.761743 -12.525264 -4.826041 1.334551 12.886491 -8.455112 9.164348 3.889622 -2.153748 41.796803 -15.344522 -11.501814 -25.593168 -61.705479 86.200539 -41.306515 38.672166 51.301442 -7.790393 5.005807 -7.000529 -40.647224 -8.749711 20.206809 -0.226850 -62.599230 -63.237382 26.849281 7.638432 -71.721815 -3.558695 5.055881 2.920456 -0.949113 -20.538381 -3.806204 2.157645 8.547062 -2.068120 0.140464 0.672642 0.009953 2.386126 -1.043264 11.423329 -0.281705 -6.501946 7.448951 0.368239 1.054814 10.009142 -0.231514 -0.553773 -0.093881 
17.395153 -0.558960 83.615540 -2.049071 -1.247334 -116.251814 -1.514720 -4.106407 2.455699 -0.657763 -1.841971 1.161328 -0.657762 -1.841971 1.161329 -0.489782 -1.382738 0.868939 1.741516 -12.611523 -4.725171 1.342924 12.728966 -8.268356 9.167414 3.941496 -2.246416 41.845424 -15.240691 -11.759266 -25.976533 -61.629842 86.515766 -41.265677 38.731206 51.364853 -7.818504 4.878100 -7.024797 -40.711076 -8.876689 20.155955 0.012019 -62.534999 -63.424556 26.873188 7.635483 -71.660801 -3.223595 4.997457 5.304126 -1.922096 -20.079436 -1.648756 2.313076 8.304946 -1.408463 0.438509 0.480462 -0.102056 2.478332 -0.537432 10.092469 -0.113924 -6.800387 7.042085 0.542490 0.929610 10.807601 -0.468266 -0.590268 -0.112555 
16.972191 -0.569320 83.400360 -2.292572 -1.024846 -116.139662 -1.820798 -4.192673 2.249643 -0.655961 -1.823968 1.131878 -0.655961 -1.823969 1.131880 -0.488553 -1.369200 0.846881 1.771357 -12.640699 -4.658834 1.428832 12.678726 -8.128609 9.154365 3.872663 -2.286527 41.920091 -14.923963 -11.979694 -26.230819 -61.585275 86.722768 -41.208867 38.656408 51.399301 -7.836416 4.757869 -7.085723 -40.630606 -8.960909 20.007267 -0.042764 -62.557942 -63.397140 26.856589 7.691574 -71.672153 -3.465602 5.124868 7.757550 -2.434127 -19.734792 -0.222175 2.357114 7.685882 -0.897723 0.768686 0.555954 0.002224 2.298514 -0.317532 8.452812 0.059650 -6.955915 6.582875 0.026274 1.064689 10.581706 -0.182097 -0.714789 -0.165700 
16.612103 -0.288431 83.385155 -2.308596 -1.023987 -116.122751 -1.808089 -4.205389 2.169235 -0.687387 -1.810864 1.110317 -0.687387 -1.810865 1.110318 -0.512209 -1.359403 0.830634 1.831274 -12.636708 -4.624263 1.556914 12.690392 -8.037939 9.151886 3.893186 -2.324957 42.022790 -14.730404 -12.188549 -26.248630 -61.577338 86.692470 -41.155418 38.519648 51.400268 -7.862089 4.746880 -7.169414 -40.482845 -9.104618 19.869379 -0.212654 -62.588281 -63.279920 26.816834 7.831226 -71.801769 -3.386997 5.321717 10.006371 -2.614398 -19.471146 0.452338 2.318181 7.566327 -0.232366 0.912650 0.273882 0.045859 2.333300 -0.189501 6.861090 0.288157 -6.489818 5.139260 -1.028767 0.744478 10.310685 0.496061 -0.642651 -0.219769 
